<?xml version="1.0" encoding="UTF-8"?>
<svg viewBox="0 0 30 22" xmlns="http://www.w3.org/2000/svg">
<style type="text/css">
	.st0{fill:#FEDA00;}
	.st1{fill:#397EC1;}
	.st2{fill:#4A97D2;}
	.st3{fill:#FFFFFF;}
</style>
<polygon class="st0" points="29.3 1.3 29.3 0.8 28.8 0.8 28.8 0.3 28.3 0.3 28.3 -0.2 1.8 -0.2 1.8 0.3 1.3 0.3 1.3 0.8 0.8 0.8 0.8 1.3 0.3 1.3 0.3 20.4 0.8 20.4 0.8 20.9 1.3 20.9 1.3 21.4 1.8 21.4 1.8 21.9 28.3 21.9 28.3 21.4 28.8 21.4 28.8 20.9 29.3 20.9 29.3 20.4 29.8 20.4 29.8 1.3"/>
<polygon class="st1" points="12.3 4.9 12.3 5.4 12.8 5.4 12.8 5.9 15.3 5.9 15.3 5.4 15.8 5.4 15.8 4.9 16.3 4.9 16.3 4.4 16.8 4.4 16.8 3.9 12.8 3.9 12.8 3.4 12.3 3.4 12.3 3.9 11.8 3.9 11.8 4.4 11.3 4.4 11.3 4.9"/>
<polygon class="st1" points="18.3 9.8 18.3 9.3 17.3 9.3 17.3 9.8"/>
<polygon class="st1" points="18.8 8.8 18.3 8.8 18.3 9.3 18.8 9.3"/>
<polygon class="st1" points="10.3 9.8 10.8 9.8 10.8 10.3 11.8 10.3 11.8 10.8 13.3 10.8 13.3 11.3 16.3 11.3 16.3 10.8 16.8 10.8 16.8 10.3 17.3 10.3 17.3 9.8 12.8 9.8 12.8 9.3 11.8 9.3 11.8 8.8 11.3 8.8 11.3 9.3 9.8 9.3 9.8 9.8"/>
<polygon class="st1" points="9.8 8.8 9.3 8.8 9.3 9.3 9.8 9.3"/>
<polygon class="st1" points="19.8 14.3 19.8 14.8 18.3 14.8 18.3 15.3 11.8 15.3 11.8 14.8 10.3 14.8 10.3 14.3 7.3 14.3 7.3 13.8 6.3 13.8 6.3 14.3 6.8 14.3 6.8 14.8 7.8 14.8 7.8 15.3 9.3 15.3 9.3 15.8 10.3 15.8 10.3 16.3 12.3 16.3 12.3 16.8 17.8 16.8 17.8 16.3 18.8 16.3 18.8 15.8 19.3 15.8 19.3 15.3 20.3 15.3 20.3 14.8 20.8 14.8 20.8 14.3"/>
<polygon class="st1" points="20.8 13.8 20.8 14.3 21.3 14.3 21.3 13.8"/>
<path class="st2" d="m17.3 1.9v-0.5h-0.5v-0.5h-0.5v-0.5h-2.5v0.5h-0.5v0.5h-0.5v0.5h-0.5v1h0.5v1h0.5v0.5h1v0.5h1.5v-0.5h1v-0.5h0.5v-1h0.5v-1h-0.5z"/>
<rect class="st3" x="13.3" y="1.9" width="1" height="1"/>
<rect class="st3" x="15.8" y="1.9" width="1" height="1"/>
<rect class="st3" x="14.8" y="4.4" width=".5" height="1"/>
<rect class="st3" x="14.3" y="5.4" width=".5" height=".5"/>
<rect class="st3" x="15.3" y="5.4" width=".5" height=".5"/>
<polygon class="st2" points="9.8 7.9 10.3 7.9 10.3 8.3 10.8 8.3 10.8 8.8 11.8 8.8 11.8 9.3 12.8 9.3 12.8 9.8 17.3 9.8 17.3 9.3 18.3 9.3 18.3 8.8 19.3 8.8 19.3 8.3 19.8 8.3 19.8 7.9 20.3 7.9 20.3 7.4 20.8 7.4 20.8 5.4 20.3 5.4 20.3 4.9 19.8 4.9 19.8 4.4 18.8 4.4 18.8 4.9 18.8 4.9 18.8 4.4 18.3 4.4 18.3 4.9 17.8 4.9 17.8 5.4 17.3 5.4 17.3 5.9 15.8 5.9 15.8 6.4 14.3 6.4 14.3 5.9 12.8 5.9 12.8 5.4 12.3 5.4 12.3 4.9 11.8 4.9 11.8 4.4 10.3 4.4 10.3 4.9 9.8 4.9 9.8 5.4 9.3 5.4 9.3 7.4 9.8 7.4"/>
<polygon class="st2" points="5.8 11.8 6.3 11.8 6.3 12.3 6.8 12.3 6.8 12.8 7.3 12.8 7.3 13.3 8.3 13.3 8.3 13.8 9.3 13.8 9.3 14.3 10.3 14.3 10.3 14.8 11.8 14.8 11.8 15.3 18.3 15.3 18.3 14.8 19.8 14.8 19.8 14.3 20.8 14.3 20.8 13.8 21.8 13.8 21.8 13.3 22.8 13.3 22.8 12.8 23.3 12.8 23.3 12.3 23.8 12.3 23.8 11.8 24.3 11.8 24.3 11.3 24.8 11.3 24.8 8.8 24.3 8.8 24.3 8.3 23.8 8.3 23.8 7.8 22.3 7.8 22.3 8.3 21.3 8.3 21.3 8.8 20.8 8.8 20.8 9.3 20.3 9.3 20.3 9.8 19.3 9.8 19.3 10.3 18.3 10.3 18.3 10.8 16.8 10.8 16.8 11.3 13.3 11.3 13.3 10.8 11.8 10.8 11.8 10.3 10.8 10.3 10.8 9.8 9.8 9.8 9.8 9.3 9.3 9.3 9.3 8.8 8.8 8.8 8.8 8.3 7.8 8.3 7.8 7.8 6.3 7.8 6.3 8.3 5.8 8.3 5.8 8.8 5.3 8.8 5.3 11.3 5.8 11.3"/>
<polygon class="st2" points="28.8 12.8 28.8 12.3 28.3 12.3 28.3 11.8 25.8 11.8 25.8 12.3 25.3 12.3 25.3 12.8 24.8 12.8 24.8 13.3 24.3 13.3 24.3 13.8 23.8 13.8 23.8 14.3 23.3 14.3 23.3 14.8 22.3 14.8 22.3 15.3 20.8 15.3 20.8 15.8 19.8 15.8 19.8 16.3 17.8 16.3 17.8 16.8 12.3 16.8 12.3 16.3 10.3 16.3 10.3 15.8 9.3 15.8 9.3 15.3 7.8 15.3 7.8 14.8 6.8 14.8 6.8 14.3 6.3 14.3 6.3 13.8 5.8 13.8 5.8 13.3 5.3 13.3 5.3 12.8 4.8 12.8 4.8 12.3 4.3 12.3 4.3 11.8 1.8 11.8 1.8 12.3 1.3 12.3 1.3 12.8 0.8 12.8 0.8 15.3 1.3 15.3 1.3 15.8 1.8 15.8 1.8 16.3 2.3 16.3 2.3 16.8 2.8 16.8 2.8 17.3 3.3 17.3 3.3 17.8 3.8 17.8 3.8 18.3 4.8 18.3 4.8 18.8 5.8 18.8 5.8 19.3 6.3 19.3 6.3 19.8 7.8 19.8 7.8 20.3 8.8 20.3 8.8 20.8 10.8 20.8 10.8 21.3 19.3 21.3 19.3 20.8 21.3 20.8 21.3 20.3 22.3 20.3 22.3 19.8 23.8 19.8 23.8 19.3 24.3 19.3 24.3 18.8 25.3 18.8 25.3 18.3 26.3 18.3 26.3 17.8 26.8 17.8 26.8 17.3 27.3 17.3 27.3 16.8 27.8 16.8 27.8 16.3 28.3 16.3 28.3 15.8 28.8 15.8 28.8 15.3 29.3 15.3 29.3 12.8"/>
</svg>
