<?xml version="1.0" encoding="UTF-8"?>
<svg version="1.1" viewBox="0 0 600 600" xmlns="http://www.w3.org/2000/svg">
<style type="text/css">
	.st1{fill:#FFF}
	.st2{fill:#2770B8}
	.st3{fill:#4595D1}
	.st4{fill:#1B2E59}
	.st0{fill:url(#e)}
	.st5{fill:url(#d)}
	.st6{fill:url(#c)}
	.st7{fill:url(#b)}
	.st8{fill:url(#a)}
</style>
<linearGradient id="e" x1="300" x2="300" y1="-48" y2="634" gradientUnits="userSpaceOnUse">
<stop stop-color="#FBD20C" offset=".3"/><stop stop-color="#EEBE33" offset=".7"/>
</linearGradient>
<linearGradient id="d" x1="300" x2="300" y1="577" y2="431" gradientUnits="userSpaceOnUse">
<stop stop-color="#4595D1" offset=".3"/><stop stop-color="#2770B8" offset=".7"/>
</linearGradient>
<linearGradient id="c" x1="300" x2="300" y1="485" y2="372" gradientUnits="userSpaceOnUse">
<stop stop-color="#4595D1" offset=".3"/><stop stop-color="#2770B8" offset=".7"/>
</linearGradient>
<linearGradient id="b" x1="300" x2="300" y1="400" y2="317" gradientUnits="userSpaceOnUse">
<stop stop-color="#4595D1" offset=".3"/><stop stop-color="#2770B8" offset=".7"/>
</linearGradient>
<linearGradient id="a" x1="300" x2="300" y1="321" y2="250" gradientUnits="userSpaceOnUse">
<stop stop-color="#4595D1" offset=".3"/><stop stop-color="#2770B8" offset=".7"/>
</linearGradient>

<circle class="st0" cx="300" cy="300" r="300"/>
<g id="puente">
	<path class="st1" d="m591.3 362.4s-79.5-95.9-128.4-167.6c-15.2-22.4-43.9-65.3-67.8-104.1-26.3-42.8-47.1-80.8-47.1-80.8v8.8s24.1 42.5 58.1 96.7c16.2 25.9 35.5 54.6 54 82.5 57.1 86.2 123.3 162 123.3 162l-79.6-25.2s-17.9-28.4-38.3-63.7c-18.2-31.5-38.3-68.6-52.5-95.7-30.2-57.5-65-140.4-65-140.4v10.8s20.1 52.1 61.7 132.2 87.4 154.6 87.4 154.6l-44.6-13.8s-29.5-56.3-53.7-112.4-50.7-126.5-50.7-126.5v10.6s18.6 53.1 43 109.7 56.1 116.7 56.1 116.7l-25.1-7.3s-31.2-72-40.3-93.6-35.8-92.3-35.8-92.3l1 15.2s8 20.3 31.2 78.9c23.1 58.6 38.7 89.8 38.7 89.8l-18.4-6.1s-13.9-31.5-28.3-66.7c-14.2-35.2-22.1-56.7-22.1-56.7v13.2s5.7 16.3 17.8 45.8 26.5 62.4 26.5 62.4h-184.8s14.4-32.8 26.5-62.4 17.8-45.8 17.8-45.8v-13.2s-7.8 21.6-22.2 56.7-28.3 66.7-28.3 66.7l-18.4 6.1s15.6-31.2 38.7-89.8 31.2-78.9 31.2-78.9l1-15.2s-26.7 70.7-35.8 92.3-40.3 93.6-40.3 93.6l-25.1 7.3s31.7-60.1 56.1-116.7c24.5-56.6 43-109.7 43-109.7v-10.6s-26.5 70.5-50.7 126.6-53.7 112.4-53.7 112.4l-44.6 13.8s45.7-74.6 87.4-154.6 61.7-132.2 61.7-132.2v-10.9s-34.7 82.9-65 140.4c-14.3 27.2-34.3 64.2-52.5 95.7-20.4 35.3-38.3 63.7-38.3 63.7l-79.6 25.2s66.1-75.7 123.3-162c18.5-27.9 37.8-56.5 54-82.5 34-54.2 58.1-96.7 58.1-96.7v-8.8s-20.8 37.9-47.1 80.8c-23.8 38.8-52.5 81.7-67.8 104.1-48.8 71.7-128.3 167.6-128.3 167.6h582.6z"/>
	<path class="st2" d="m250.4 141.6c-2.9 77.2-8.3 116.8-11.6 143l-233.1 73.8c4.1 20.6 10.2 40.4 18.3 59.2h276l0.1-152.5-45.2 14.3c5.3-42.1 9-84.2 10.9-126.2 0.7-16.1 1.2-32.3 1.5-48.4l32.9-16v-14.2l-32.7 5c-0.8-42.6-2-72.8-2.2-77.6-5.2 0.6-10.3 1.3-15.4 2.2 0.2 11 3.4 60.7 0.5 137.4z"/>
	<path class="st3" d="m594.3 358.4l-233.1-73.8c-3.3-26.2-8.8-65.8-11.6-143-2.8-76.7 0.3-126.4 0.7-137.3-5.1-0.9-10.2-1.6-15.4-2.2-0.2 4.8-1.4 35-2.2 77.6l-32.7-5v14.3l32.9 16c0.2 16.1 0.7 32.3 1.5 48.4 1.9 42 5.6 84.1 10.9 126.2l-45.3-14.4 0.1 152.5h276c8-18.9 14.1-38.7 18.2-59.3z"/>
	<path class="st4" d="M300,265.2L23.5,416.5l0,0C69,524.3,175.6,600,300,600s231-75.7,276.5-183.5L300,265.2z"/>
</g>
<g id="wi-py">
	<path class="st2" d="m395.7 381.4c-40 40-89.3 70.6-138.5 82.4s-88.9 2.6-113.4-21.9c6.4 6.4-43.9 56.8-50.4 50.4 36.1 36.1 92.4 52 160.3 39.3 67.9-12.8 134.5-51.9 187.4-104.8-5.8 5.8-51.2-39.6-45.4-45.4z"/>
	<path class="st2" d="m340.3 326c-24.5 24.5-52.9 45.1-79.5 55.9s-46.2 9.9-56.5-0.5c5.8 5.8-39.5 51.2-45.3 45.4 20.6 20.6 55 27.5 98.3 15.7s87.3-40 123.4-76.1c-5.2 5.1-45.5-35.2-40.4-40.4z"/>
	<path class="st2" d="m325.2 310.9c-6.4 6.4-58.5-10.7-59.9-17.4-13.1 11-25.8 20-37.4 26.6l-0.1 0.1c3.6-1.6 39.4 34.1 37.7 37.7 18.1-10.2 39.2-26.5 59.7-47z"/>
	<path class="st5" d="m481.4 431.5c-9.8 0-18.7 4-25.2 10.4-40 40-95.2 64.7-156.2 64.7s-116.2-24.7-156.2-64.7c-6.4-6.4-15.4-10.4-25.2-10.4-19.7 0-35.6 16-35.6 35.6 0 9.8 4 18.7 10.4 25.2 52.9 52.9 125.9 85.6 206.6 85.6s153.7-32.7 206.6-85.6c6.4-6.4 10.4-15.4 10.4-25.2 0-19.7-15.9-35.6-35.6-35.6z"/>
	<path class="st6" d="m300 485.2c55.1 0 105-22.3 141.1-58.4 5.8-5.8 9.4-13.8 9.4-22.7 0-17.7-14.4-32.1-32.1-32.1-8.9 0-16.9 3.6-22.7 9.4-24.5 24.5-58.3 39.7-95.7 39.7s-71.2-15.2-95.7-39.7c-5.8-5.8-13.8-9.4-22.7-9.4-17.7 0-32.1 14.4-32.1 32.1 0 8.9 3.6 16.9 9.4 22.7 36.1 36.1 86 58.4 141.1 58.4z"/>
	<path class="st7" d="m300 399.7c31.5 0 60-12.8 80.6-33.4 5.2-5.2 8.3-12.3 8.3-20.2 0-15.7-12.8-28.5-28.5-28.5-7.9 0-15 3.2-20.2 8.3-10.3 10.3-24.6 16.7-40.3 16.7s-30-6.4-40.3-16.7c-5.2-5.2-12.3-8.3-20.2-8.3-15.7 0-28.5 12.8-28.5 28.5 0 7.9 3.2 15 8.3 20.2 20.8 20.7 49.3 33.4 80.8 33.4z"/>
	<path class="st8" d="m300 321.3c9.8 0 18.7-4 25.2-10.4s10.4-15.4 10.4-25.2c0-19.7-16-35.6-35.6-35.6s-35.6 16-35.6 35.6c0 9.8 4 18.7 10.4 25.2 6.5 6.4 15.4 10.4 25.2 10.4z"/>
	<circle class="st1" cx="280.5" cy="285.8" r="7.2"/>
	<circle class="st1" cx="319.5" cy="285.7" r="7.2"/>
	<path class="st1" d="m293.7 338.8l5.9-4.7 6.5 5c0-0.1-1.3-4.3-1.3-10.5s1.8-16.2 1.8-16.2l-6.7-2-6.7 2s1.8 10 1.8 16.2c0.1 6.2-1.3 10.1-1.3 10.2z"/>
</g>
</svg>
